:FULLY-SPECIFIED
:FORCE-ALL-JOINTS-BE-3DOF
:DEGREES
324
root 9.6816 16.4058 9.34493 6.72171 8.83091 3.05974
lfemur 27.7615 5.92142 -19.4825
ltibia -1.16291 0 0
lfoot 1.0002 -4.00999 -0.0305691
ltoes -15.2187 0 0
rfemur -43.7662 0.740081 16.1772
rtibia 41.5262 -0 0
rfoot -6.37969 -0.551987 0.152399
rtoes -19.6892 0 0
lowerback -7.78145 -4.8208 -5.24179
upperback -1.28437 -6.06279 2.2773
thorax 3.78456 -3.1012 4.61764
lowerneck -19.0076 -4.68437 -13.0268
upperneck 20.8771 -5.96715 13.3097
head 10.6662 -2.26917 6.14653
lclavicle 3.5334e-14 -1.90833e-14 0
lhumerus -23.5726 -36.3728 100.186
lradius 38.1935 -0 0
lwrist 7.39989 0 0
lhand -7.37544 -25.0658 0.00549692
lfingers 7.12502 -0 0
lthumb 18.5088 4.0611 0.0026057
rclavicle 3.5334e-14 -1.90833e-14 0
rhumerus -50.583 5.59696 -82.5876
rradius 30.1645 -0 0
rwrist -15.3368 0 0
rhand -28.2278 -24.6553 -0.00323845
rfingers 7.12502 -0 0
rthumb -1.60599 -54.6293 -0.00310749
325
root 9.67111 16.393 9.50936 6.75415 8.95102 3.00158
lfemur 27.8784 5.87646 -19.2444
ltibia -1.10191 0 0
lfoot 1.31422 -4.06305 -0.0142646
ltoes -15.3064 0 0
rfemur -43.6013 0.837476 16.2697
rtibia 41.2811 -0 0
rfoot -6.11528 -0.248981 0.11843
rtoes -19.5662 0 0
lowerback -7.82064 -4.80105 -5.2096
upperback -1.31151 -6.03741 2.28358
thorax 3.77633 -3.08734 4.60571
lowerneck -18.9523 -4.71991 -13.0612
upperneck 20.8305 -6.02167 13.3556
head 10.6495 -2.29318 6.15884
lclavicle 3.5334e-14 -1.90833e-14 0
lhumerus -24.1525 -36.531 100.584
lradius 38.3537 -0 0
lwrist 7.49982 0 0
lhand -7.23066 -25.0481 0.00502707
lfingers 7.12502 -0 0
lthumb 18.6483 4.06898 0.00292219
rclavicle 3.5334e-14 -1.90833e-14 0
rhumerus -50.5271 5.65045 -82.6171
rradius 30.0493 -0 0
rwrist -15.2304 0 0
rhand -28.2172 -24.7221 -0.00241276
rfingers 7.12502 -0 0
rthumb -1.59576 -54.6962 -0.00231169
326
root 9.66062 16.3802 9.6738 6.7818 9.05696 2.94028
lfemur 27.9016 5.83202 -19.024
ltibia -0.958662 0 0
lfoot 1.57619 -4.08824 -0.00259337
ltoes -15.3673 0 0
rfemur -43.4176 0.938836 16.3711
rtibia 41.0426 -0 0
rfoot -5.90021 0.0295501 0.0855436
rtoes -19.4523 0 0
lowerback -7.85326 -4.77687 -5.17314
upperback -1.3351 -6.00687 2.28995
thorax 3.76722 -3.0709 4.5924
lowerneck -18.904 -4.75447 -13.0915
upperneck 20.7902 -6.07433 13.3959
head 10.6357 -2.31643 6.1689
lclavicle 3.5334e-14 -1.90833e-14 0
lhumerus -24.7166 -36.6508 100.952
lradius 38.4881 -0 0
lwrist 7.60196 0 0
lhand -7.11036 -25.0277 0.00424855
lfingers 7.12502 -0 0
lthumb 18.7642 4.08135 0.00284292
rclavicle 3.5334e-14 -1.90833e-14 0
rhumerus -50.4511 5.71753 -82.6484
rradius 29.9643 -0 0
rwrist -15.1438 0 0
rhand -28.2117 -24.7826 -0.00166212
rfingers 7.12502 -0 0
rthumb -1.59041 -54.7567 -0.00158952
327
root 9.65013 16.3673 9.83823 6.80434 9.14807 2.87579
lfemur 27.8271 5.78868 -18.8223
ltibia -0.729627 0 0
lfoot 1.78307 -4.0842 0.00394493
ltoes -15.3965 0 0
rfemur -43.2153 1.04413 16.4817
rtibia 40.8117 -0 0
rfoot -5.73773 0.281844 0.0544185
rtoes -19.3482 0 0
lowerback -7.87893 -4.74819 -5.13228
upperback -1.35488 -5.97108 2.29641
thorax 3.75727 -3.05185 4.5777
lowerneck -18.8633 -4.78793 -13.1174
upperneck 20.7566 -6.12498 13.4305
head 10.6253 -2.33883 6.17658
lclavicle 3.5334e-14 -1.90833e-14 0
lhumerus -25.2615 -36.7313 101.287
lradius 38.5954 -0 0
lwrist 7.70655 0 0
lhand -7.01604 -25.0044 0.00315284
lfingers 7.12502 -0 0
lthumb 18.8551 4.09839 0.00234163
rclavicle 3.5334e-14 -1.90833e-14 0
rhumerus -50.354 5.79882 -82.6815
rradius 29.9111 -0 0
rwrist -15.0779 0 0
rhand -28.2115 -24.8365 -0.00100117
rfingers 7.12502 -0 0
rthumb -1.59023 -54.8106 -0.000955167
328
root 9.63964 16.3545 10.0027 6.82144 9.22367 2.8081
lfemur 27.6511 5.74693 -18.6407
ltibia -0.411256 0 0
lfoot 1.9318 -4.04959 0.00492292
ltoes -15.3962 0 0
rfemur -42.9945 1.1533 16.602
rtibia 40.5891 -0 0
rfoot -5.63108 0.506141 0.0257033
rtoes -19.2546 0 0
lowerback -7.89725 -4.71492 -5.08693
upperback -1.3706 -5.92998 2.30297
thorax 3.74648 -3.03016 4.5616
lowerneck -18.8306 -4.82019 -13.1387
upperneck 20.7301 -6.17341 13.4589
head 10.6182 -2.36029 6.18173
lclavicle 3.5334e-14 -1.90833e-14 0
lhumerus -25.7843 -36.7715 101.587
lradius 38.6743 -0 0
lwrist 7.81386 0 0
lhand -6.94921 -24.9783 0.00173616
lfingers 7.12502 -0 0
lthumb 18.9195 4.12029 0.00139826
rclavicle 3.5334e-14 -1.90833e-14 0
rhumerus -50.2349 5.89496 -82.7163
rradius 29.8913 -0 0
rwrist -15.0338 0 0
rhand -28.2169 -24.8834 -0.000443226
rfingers 7.12502 -0 0
rthumb -1.59545 -54.8573 -0.000421548
329
root 9.62915 16.3417 10.1671 6.83279 9.28311 2.73717
lfemur 27.3698 5.70719 -18.4801
ltibia 6.36111e-15 0 0
lfoot 2.01933 -3.98304 0
ltoes -15.3638 0 0
rfemur -42.7555 1.26631 16.7323
rtibia 40.3758 0 0
rfoot -5.58349 0.700675 0
rtoes -19.1723 0 0
lowerback -7.90783 -4.67699 -5.03697
upperback -1.382 -5.88346 2.30964
thorax 3.7349 -3.00579 4.54406
lowerneck -18.8063 -4.85112 -13.1551
upperneck 20.7113 -6.21944 13.4807
head 10.6149 -2.38074 6.18421
lclavicle 3.5334e-14 -1.90833e-14 0
lhumerus -26.2818 -36.7705 101.848
lradius 38.7235 0 0
lwrist 7.9241 0 0
lhand -6.91139 -24.9491 0
lfingers 7.12502 0 0
lthumb 18.956 4.14723 0
rclavicle 3.5334e-14 -1.90833e-14 0
rhumerus -50.0928 6.00658 -82.7526
rradius 29.9064 0 0
rwrist -15.0127 0 0
rhand -28.2282 -24.9229 0
rfingers 7.12502 0 0
rthumb -1.60635 -54.8966 0
330
root 9.62153 16.3593 10.3056 6.83932 9.3271 2.66143
lfemur 26.9646 5.6723 -18.3372
ltibia 0.533384 -0 0
lfoot 2.04603 -3.88119 -0.0112379
ltoes -15.2923 0 0
rfemur -42.4891 1.38505 16.8764
rtibia 40.1714 -0 0
rfoot -5.59204 0.872007 -0.0231903
rtoes -19.098 0 0
lowerback -7.90988 -4.6328 -4.98119
upperback -1.38999 -5.82952 2.31625
thorax 3.72079 -2.97766 4.52431
lowerneck -18.7896 -4.88199 -13.1672
upperneck 20.6986 -6.26488 13.4969
head 10.6148 -2.40095 6.18414
lclavicle -6.98231e-15 -4.17448e-14 0
lhumerus -26.7703 -36.725 102.075
lradius 38.7419 -0 0
lwrist 8.03889 0 0
lhand -6.90277 -24.9159 -0.00214234
lfingers 7.12502 -0 0
lthumb 18.9643 4.18029 -0.00193626
rclavicle -6.98231e-15 -4.17448e-14 0
rhumerus -49.9246 6.13837 -82.7917
rradius 29.9599 -0 0
rwrist -15.0164 0 0
rhand -28.2462 -24.956 0.000335228
rfingers 7.12502 -0 0
rthumb -1.62372 -54.9294 0.000315649
331
root 9.61392 16.377 10.4441 6.84231 9.35713 2.5795
lfemur 26.4239 5.64488 -18.2074
ltibia 1.21072 -0 0
lfoot 2.01608 -3.74276 -0.0287155
ltoes -15.1771 0 0
rfemur -42.1869 1.51106 17.0376
rtibia 39.9744 -0 0
rfoot -5.64997 1.02832 -0.0446328
rtoes -19.0279 0 0
lowerback -7.90315 -4.58104 -4.91861
upperback -1.39572 -5.76646 2.32264
thorax 3.70258 -2.94485 4.50167
lowerneck -18.7792 -4.91406 -13.1759
upperneck 20.6899 -6.3116 13.5089
head 10.6174 -2.42174 6.18183
lclavicle -6.98231e-15 -4.17448e-14 0
lhumerus -27.2673 -36.6336 102.276
lradius 38.73 -0 0
lwrist 8.15934 0 0
lhand -6.92162 -24.8779 -0.00474709
lfingers 7.12502 -0 0
lthumb 18.9462 4.2202 -0.00445154
rclavicle -6.98231e-15 -4.17448e-14 0
rhumerus -49.7287 6.29381 -82.8348
rradius 30.0529 -0 0
rwrist -15.0453 0 0
rhand -28.2713 -24.984 0.000576218
rfingers 7.12502 -0 0
rthumb -1.64793 -54.957 0.000538517
332
root 9.6063 16.3946 10.5826 6.84193 9.37369 2.4916
lfemur 25.754 5.6248 -18.0902
ltibia 2.02444 -0 0
lfoot 1.93214 -3.56949 -0.0518948
ltoes -15.0204 0 0
rfemur -41.85 1.64371 17.2151
rtibia 39.7841 -0 0
rfoot -5.75474 1.17029 -0.0642075
rtoes -18.9617 0 0
lowerback -7.8881 -4.52202 -4.84951
upperback -1.39929 -5.69464 2.32883
thorax 3.68049 -2.90756 4.47625
lowerneck -18.7748 -4.94728 -13.1814
upperneck 20.6851 -6.3595 13.5169
head 10.6224 -2.44306 6.17738
lclavicle -6.98231e-15 -4.17448e-14 0
lhumerus -27.7715 -36.4984 102.451
lradius 38.6892 -0 0
lwrist 8.28501 0 0
lhand -6.96656 -24.8352 -0.00775903
lfingers 7.12502 -0 0
lthumb 18.903 4.26664 -0.00748392
rclavicle -6.98231e-15 -4.17448e-14 0
rhumerus -49.5062 6.47169 -82.8813
rradius 30.1834 -0 0
rwrist -15.098 0 0
rhand -28.3031 -25.0072 0.000724803
rfingers 7.12502 -0 0
rthumb -1.67865 -54.9797 0.000670597
333
root 9.59868 16.4122 10.721 6.83839 9.37724 2.398
lfemur 24.9613 5.61185 -17.9851
ltibia 2.96695 -0 0
lfoot 1.79684 -3.3631 -0.0801574
ltoes -14.8246 0 0
rfemur -41.4794 1.78235 17.4084
rtibia 39.5997 -0 0
rfoot -5.90382 1.29856 -0.0818414
rtoes -18.8995 0 0
lowerback -7.86517 -4.45609 -4.77415
upperback -1.40079 -5.61446 2.33486
thorax 3.65475 -2.86599 4.4482
lowerneck -18.776 -4.98154 -13.1839
upperneck 20.6841 -6.4085 13.5211
head 10.6299 -2.46488 6.1709
lclavicle -6.98231e-15 -4.17448e-14 0
lhumerus -28.2816 -36.3215 102.6
lradius 38.6209 -0 0
lwrist 8.41544 0 0
lhand -7.0362 -24.7881 -0.0111188
lfingers 7.12502 -0 0
lthumb 18.8359 4.31928 -0.0109652
rclavicle -6.98231e-15 -4.17448e-14 0
rhumerus -49.2587 6.67082 -82.9309
rradius 30.3494 -0 0
rwrist -15.1734 0 0
rhand -28.3412 -25.0257 0.000784646
rfingers 7.12502 -0 0
rthumb -1.71551 -54.9978 0.000715671
334
root 9.59107 16.4299 10.8595 6.83189 9.36827 2.29894
lfemur 24.0519 5.60573 -17.8917
ltibia 4.03068 -0 0
lfoot 1.61283 -3.12531 -0.11282
ltoes -14.5919 0 0
rfemur -41.0763 1.92631 17.6168
rtibia 39.4205 -0 0
rfoot -6.09467 1.4138 -0.0975022
rtoes -18.8409 0 0
lowerback -7.83479 -4.38358 -4.69279
upperback -1.40032 -5.52628 2.34075
thorax 3.6256 -2.82033 4.41765
lowerneck -18.7826 -5.01679 -13.1835
upperneck 20.6866 -6.45851 13.5216
head 10.6397 -2.48714 6.1625
lclavicle -6.98231e-15 -4.17448e-14 0
lhumerus -28.7967 -36.105 102.724
lradius 38.5263 -0 0
lwrist 8.55015 0 0
lhand -7.12915 -24.7369 -0.014764
lfingers 7.12502 -0 0
lthumb 18.7465 4.3778 -0.0148226
rclavicle -6.98231e-15 -4.17448e-14 0
rhumerus -48.9873 6.89001 -82.9832
rradius 30.549 -0 0
rwrist -15.2702 0 0
rhand -28.3854 -25.0398 0.000760977
rfingers 7.12502 -0 0
rthumb -1.75816 -55.0112 0.000679048
335
root 9.58345 16.4475 10.998 6.82261 9.34726 2.19468
lfemur 23.0323 5.60605 -17.8096
ltibia 5.20804 -0 0
lfoot 1.38274 -2.85782 -0.149149
ltoes -14.3246 0 0
rfemur -40.6418 2.07492 17.8396
rtibia 39.2458 -0 0
rfoot -6.32477 1.51664 -0.111193
rtoes -18.7858 0 0
lowerback -7.79741 -4.30482 -4.60569
upperback -1.39796 -5.43048 2.34652
thorax 3.59327 -2.7708 4.38471
lowerneck -18.7942 -5.05293 -13.1803
upperneck 20.6925 -6.50942 13.5187
head 10.6515 -2.50981 6.15228
lclavicle -6.98231e-15 -4.17448e-14 0
lhumerus -29.3158 -35.8511 102.823
lradius 38.4067 -0 0
lwrist 8.68871 0 0
lhand -7.24403 -24.6816 -0.0186302
lfingers 7.12502 -0 0
lthumb 18.6358 4.44186 -0.0189796
rclavicle -6.98231e-15 -4.17448e-14 0
rhumerus -48.6935 7.12804 -83.0376
rradius 30.7803 -0 0
rwrist -15.3871 0 0
rhand -28.4352 -25.0497 0.000660343
rfingers 7.12502 -0 0
rthumb -1.80625 -55.0204 0.000567315
